<?xml version="1.0" encoding="UTF-8"?>
<svg id="Layer_2" data-name="Layer 2" xmlns="http://www.w3.org/2000/svg" viewBox="0 0 75.67 75.67">
  <g id="Layer_1-2" data-name="Layer 1">
    <path d="M75.67,37.83c0,20.9-16.94,37.83-37.83,37.83S0,58.73,0,37.83,16.94,0,37.83,0s37.83,16.94,37.83,37.83ZM55.31,24.24c-.04-.4-.24-.76-.54-1.02-.45-.37-1.15-.45-1.47-.44-1.42.03-3.61.78-14.11,5.15-3.68,1.53-11.03,4.7-22.06,9.5-1.79.71-2.73,1.41-2.81,2.09-.16,1.31,1.72,1.71,4.09,2.48,1.93.63,4.53,1.36,5.88,1.39,1.23.03,2.59-.48,4.1-1.52,10.31-6.96,15.62-10.47,15.96-10.55.24-.05.56-.12.78.08s.2.57.18.67c-.19.8-9.87,9.6-10.43,10.18-2.13,2.21-4.55,3.56-.81,6.03,3.23,2.13,5.11,3.49,8.44,5.67,2.13,1.4,3.8,3.05,5.99,2.85,1.01-.09,2.06-1.04,2.59-3.88,1.25-6.7,3.72-21.22,4.29-27.2.03-.5.01-1-.06-1.49Z" fill="#fff"/>
  </g>
</svg>